<?xml version="1.0" encoding="UTF-8" standalone="no"?>
<svg
   width="800px"
   height="800px"
   viewBox="0 0 1024 1024"
   class="icon"
   version="1.1"
   id="svg4"
   sodipodi:docname="com.empesol.timetracker.svg"
   inkscape:version="1.3.2 (091e20ef0f, 2023-11-25, custom)"
   xmlns:inkscape="http://www.inkscape.org/namespaces/inkscape"
   xmlns:sodipodi="http://sodipodi.sourceforge.net/DTD/sodipodi-0.dtd"
   xmlns="http://www.w3.org/2000/svg"
   xmlns:svg="http://www.w3.org/2000/svg">
  <defs
     id="defs4" />
  <sodipodi:namedview
     id="namedview4"
     pagecolor="#ffffff"
     bordercolor="#000000"
     borderopacity="0.25"
     inkscape:showpageshadow="2"
     inkscape:pageopacity="0.0"
     inkscape:pagecheckerboard="0"
     inkscape:deskcolor="#d1d1d1"
     showgrid="false"
     inkscape:zoom="0.38955014"
     inkscape:cx="-24.387105"
     inkscape:cy="703.37544"
     inkscape:window-width="1920"
     inkscape:window-height="1008"
     inkscape:window-x="0"
     inkscape:window-y="0"
     inkscape:window-maximized="1"
     inkscape:current-layer="svg4" />
  <path
     d="M 583.8545,489.02313 408.27649,364.46756 c -18.84857,-13.38046 -44.98061,-8.93841 -58.35768,9.91865 l -1.73133,2.43659 c -13.36942,18.85282 -8.93332,44.98062 9.92205,58.35768 L 533.6833,559.74369 c 18.85621,13.37282 44.98061,8.93417 58.36107,-9.91865 l 1.72709,-2.44084 c 13.38215,-18.85621 8.93586,-44.98485 -9.91696,-58.36107 z"
     fill="#f39a2b"
     id="path1"
     style="stroke-width:0.848691" />
  <path
     d="m 573.15081,440.33543 -2.43659,-1.72623 c -18.85621,-13.37792 -44.98401,-8.93417 -58.36107,9.91865 L 313.40134,728.95822 c -13.37706,18.85281 -8.93417,44.98485 9.9212,58.35853 l 2.43659,1.73132 c 18.85621,13.37707 44.98401,8.93672 58.35768,-9.91949 L 583.06946,498.69736 c 13.38131,-18.85791 8.93757,-44.98147 -9.91865,-58.36193 z"
     fill="#e5594f"
     id="path2"
     style="stroke-width:0.848691" />
  <path
     d="m 833.35603,526.67615 c -0.30807,42.5245 -6.87779,77.88181 -23.34069,120.95711 -11.22988,29.38593 -37.53845,69.74287 -59.85732,94.29635 -53.46158,58.82276 -129.40668,96.14988 -204.34099,103.21353 -85.52512,8.06342 -160.92961,-14.83341 -230.2388,-66.66551 6.49249,4.85706 -6.39573,-5.43841 -5.9926,-5.09978 -3.87173,-3.24285 -7.61021,-6.63677 -11.34615,-10.03492 -7.47103,-6.79208 -14.51686,-14.03311 -21.40823,-21.40738 -15.40204,-16.49176 -22.22551,-25.90714 -35.1689,-46.56427 -23.00801,-36.71776 -34.54511,-68.13545 -43.28917,-112.48209 -3.40749,-17.27426 -4.57869,-33.78045 -4.74079,-56.21135 -0.45065,-62.2345 -96.996875,-62.27778 -96.545371,0 1.363846,188.82269 130.781561,356.57407 314.094541,403.73497 183.72629,47.26954 381.09529,-41.80481 470.09835,-208.38755 32.04147,-59.97189 48.1335,-127.49373 48.62404,-195.35081 0.44641,-62.27609 -96.09811,-62.2328 -96.54792,0.002 z"
     fill="#4a5699"
     id="path3"
     style="stroke-width:0.848691" />
  <path
     d="m 193.63154,506.59697 c 0.30723,-42.52281 6.87695,-77.87757 23.3407,-120.95542 11.23073,-29.38252 37.54014,-69.73947 59.85816,-94.29634 53.46159,-58.82192 129.4016,-96.14819 204.3376,-103.21354 85.52513,-8.06256 160.93385,14.83427 230.24304,66.66806 -6.49418,-4.85536 6.39234,5.43841 5.98921,5.10063 3.87258,3.24115 7.61106,6.63761 11.34785,10.03408 7.47102,6.78952 14.5194,14.0331 21.41077,21.40822 15.40119,16.49007 22.22467,25.90714 35.16805,46.56427 23.00886,36.71777 34.54936,68.13291 43.29087,112.47955 3.40665,17.27255 4.57954,33.78129 4.74079,56.21049 0.44896,62.2345 96.99433,62.28033 96.54707,0 C 928.54096,317.77259 799.11645,150.02461 615.80602,102.86201 432.07972,55.589924 234.71327,144.66852 145.71191,311.2504 113.67129,371.22229 97.578411,438.73989 97.088716,506.59697 c -0.453201,62.28033 96.093024,62.2345 96.542824,0 z"
     fill="#c45fa0"
     id="path4"
     style="stroke-width:0.848691" />
</svg>
